<?xml version="1.0" encoding="iso-8859-1"?>
<!-- Uploaded to: SVG Repo, www.svgrepo.com, Generator: SVG Repo Mixer Tools -->
<!DOCTYPE svg PUBLIC "-//W3C//DTD SVG 1.1//EN" "http://www.w3.org/Graphics/SVG/1.1/DTD/svg11.dtd">
<svg fill="#000000" version="1.1" id="Capa_1" xmlns="http://www.w3.org/2000/svg" xmlns:xlink="http://www.w3.org/1999/xlink" 
	 width="800px" height="800px" viewBox="0 0 31.973 31.973"
	 xml:space="preserve">
<g>
	<g>
		<path d="M18.877,7.634c1.822,0,3.3-1.479,3.3-3.301c0-0.731-0.245-1.4-0.646-1.947l0.379-1.579l-1.773,0.322L19.41,0l-1.934,1.29
			l-1.37-0.564l-0.322,1.611l-1.371,0.807l1.214,1.71C15.88,6.428,17.231,7.634,18.877,7.634z"/>
		<polygon points="20.943,25.632 20.086,19.791 15.744,19.747 17.719,25.632 16.449,31.111 16.295,31.111 16.295,31.973 
			21.131,31.973 21.131,31.111 20.139,31.111 		"/>
		<path d="M20.086,19.419v-1.66l-3.426-2.91l-0.026-0.004V9.409l2.563,0.041l-0.01,3.191l0.898,0.905v-5.47h-4.79l-0.711,0.252
			V8.075c0,0-0.16-0.005-0.415,0.005V7.546c0-0.181-0.147-0.328-0.328-0.328c-0.181,0-0.328,0.147-0.328,0.328v0.591
			c-0.806,0.103-2.855,0.368-3.377,1.051c-0.913,1.196-0.914,9.78-0.914,9.78l5.362-0.631v-0.594l0.712,0.409v1.267H20.086z
			 M14.584,16.256V9.732l0.712-0.192v7.125L14.584,16.256z"/>
		<polygon points="18.853,12.895 18.807,9.833 17.066,9.821 17.066,14.505 21.435,18.365 22.75,16.658 		"/>
	</g>
</g>
</svg>